<svg id="Calque_1" data-name="Calque 1" xmlns="http://www.w3.org/2000/svg" xmlns:xlink="http://www.w3.org/1999/xlink" viewBox="0 0 160 180"><defs><linearGradient id="linear-gradient" x1="83.77" y1="97.05" x2="83.77" y2="51.02" gradientUnits="userSpaceOnUse"><stop offset="0" stop-color="#cdeffa"/><stop offset="1" stop-color="#fafafa"/></linearGradient><linearGradient id="linear-gradient-2" x1="91.21" y1="125.57" x2="91.21" y2="117.13" xlink:href="#linear-gradient"/><linearGradient id="linear-gradient-3" x1="2056.56" y1="3299.65" x2="2065.6" y2="3299.65" gradientTransform="translate(419.66 -3809.76) rotate(36.44)" gradientUnits="userSpaceOnUse"><stop offset="0" stop-color="#bdbdbd"/><stop offset="0.12" stop-color="#ababab"/><stop offset="0.32" stop-color="#919191"/><stop offset="0.53" stop-color="#7f7f7f"/><stop offset="0.76" stop-color="#747474"/><stop offset="1" stop-color="#707070"/></linearGradient><linearGradient id="linear-gradient-4" x1="11674.13" y1="-3781.53" x2="11681.34" y2="-3781.53" gradientTransform="matrix(-0.8, 0.59, 0.59, 0.8, 11693.26, -3809.76)" xlink:href="#linear-gradient-3"/></defs><path d="M69.23,46.65c0,.23-.14.42-.31.42H67.31a.38.38,0,0,1-.31-.42V45.33c0-.22.14-.41.31-.41l1.62,0c.17,0,.3.18.3.41Z" style="fill:#2e3070"/><path d="M69.13,59.35c0-.23-.14-.42-.3-.42H67.21c-.17,0-.31.19-.31.41v1.3c0,.23.13.42.3.42h1.62c.17,0,.31-.18.31-.41Z" style="fill:#2e3070"/><path d="M65.9,46.92a.36.36,0,0,1-.06.51l-1.4.8A.37.37,0,0,1,64,48l-.65-1.13a.38.38,0,0,1,.06-.51l1.41-.8c.15-.09.36,0,.47.21Z" style="fill:#2e3070"/><path d="M72.16,58c-.11-.2-.32-.3-.46-.21l-1.41.79a.36.36,0,0,0-.06.51l.64,1.14c.11.19.33.29.47.21l1.41-.8a.38.38,0,0,0,.06-.51Z" style="fill:#2e3070"/><path d="M63.16,48.82a.36.36,0,0,1,.2.47l-.81,1.39a.38.38,0,0,1-.52.06l-1.12-.66a.37.37,0,0,1-.2-.48l.82-1.39c.08-.15.31-.17.51-.05Z" style="fill:#2e3070"/><path d="M74.1,55.25a.37.37,0,0,0-.51,0l-.82,1.4c-.09.14,0,.35.21.47l1.12.66a.37.37,0,0,0,.51,0l.82-1.4c.08-.14,0-.35-.21-.47Z" style="fill:#2e3070"/><path d="M61.73,51.83c.23,0,.41.14.41.31v1.62c0,.16-.19.3-.42.3h-1.3c-.23,0-.42-.14-.41-.31V52.12c0-.17.19-.3.42-.3Z" style="fill:#2e3070"/><path d="M74.42,51.93a.39.39,0,0,0-.42.3v1.62c0,.17.19.31.41.31h1.31c.23,0,.41-.13.41-.31l0-1.61c0-.17-.19-.31-.41-.31Z" style="fill:#2e3070"/><path d="M62,55.15a.36.36,0,0,1,.5.07l.8,1.4c.09.15,0,.36-.21.47L62,57.74a.37.37,0,0,1-.51-.07l-.8-1.4a.37.37,0,0,1,.21-.47Z" style="fill:#2e3070"/><path d="M73,48.89a.4.4,0,0,0-.22.47l.81,1.41a.35.35,0,0,0,.5.06l1.14-.64a.37.37,0,0,0,.21-.47l-.8-1.41c-.08-.15-.31-.17-.51-.06Z" style="fill:#2e3070"/><path d="M63.89,57.9a.36.36,0,0,1,.47-.2l1.4.82a.37.37,0,0,1,0,.51l-.66,1.12c-.12.2-.33.29-.47.2l-1.4-.81a.36.36,0,0,1-.05-.51Z" style="fill:#2e3070"/><path d="M70.32,47a.38.38,0,0,0,.05.51l1.4.82a.39.39,0,0,0,.48-.2L72.9,47a.36.36,0,0,0-.05-.51l-1.39-.82a.39.39,0,0,0-.48.2Z" style="fill:#2e3070"/><path d="M68.12,46.17a6.82,6.82,0,1,0,6.76,6.88A6.82,6.82,0,0,0,68.12,46.17ZM68,57.48A4.49,4.49,0,1,1,72.55,53,4.48,4.48,0,0,1,68,57.48Z" style="fill:#2e3070"/><path d="M116.16,87c0,.17-.1.3-.22.3h-1.17c-.12,0-.22-.13-.22-.3V86c0-.17.1-.3.23-.3H116c.12,0,.22.14.22.3Z" style="fill:#2e3070"/><path d="M116.09,96.17c0-.17-.1-.31-.22-.31H114.7c-.12,0-.22.14-.22.3v.95a.28.28,0,0,0,.22.3h1.17c.12,0,.22-.13.22-.29Z" style="fill:#2e3070"/><path d="M113.76,87.19a.27.27,0,0,1-.05.37l-1,.57a.26.26,0,0,1-.34-.15l-.47-.82a.27.27,0,0,1,0-.37l1-.57a.26.26,0,0,1,.35.15Z" style="fill:#2e3070"/><path d="M118.28,95.17c-.08-.15-.23-.22-.33-.15l-1,.57a.27.27,0,0,0-.05.37l.47.82a.27.27,0,0,0,.34.15l1-.58c.1,0,.12-.22,0-.37Z" style="fill:#2e3070"/><path d="M111.78,88.55a.28.28,0,0,1,.14.35l-.59,1a.26.26,0,0,1-.37,0l-.81-.47c-.14-.09-.21-.24-.14-.35l.59-1a.26.26,0,0,1,.36,0Z" style="fill:#2e3070"/><path d="M119.68,93.2a.28.28,0,0,0-.37,0l-.59,1a.26.26,0,0,0,.15.34l.81.48a.28.28,0,0,0,.37,0l.59-1a.26.26,0,0,0-.15-.34Z" style="fill:#2e3070"/><path d="M110.74,90.73c.17,0,.3.1.3.22v1.17c0,.13-.14.22-.3.22h-.94c-.17,0-.3-.1-.3-.22V90.94c0-.12.14-.22.3-.21Z" style="fill:#2e3070"/><path d="M119.92,90.8a.29.29,0,0,0-.31.22v1.17c0,.12.14.22.3.23h.94c.17,0,.3-.09.31-.22V91c0-.13-.13-.23-.29-.23Z" style="fill:#2e3070"/><path d="M110.94,93.13a.26.26,0,0,1,.36.05l.58,1c.06.1,0,.25-.15.34l-.82.46a.27.27,0,0,1-.37,0l-.58-1a.27.27,0,0,1,.15-.34Z" style="fill:#2e3070"/><path d="M118.91,88.61a.27.27,0,0,0-.15.34l.58,1a.27.27,0,0,0,.37,0l.82-.46a.27.27,0,0,0,.15-.34l-.58-1c-.06-.11-.22-.12-.37,0Z" style="fill:#2e3070"/><path d="M112.3,95.12a.29.29,0,0,1,.35-.15l1,.59a.26.26,0,0,1,0,.37l-.48.82a.26.26,0,0,1-.34.14l-1-.59a.26.26,0,0,1,0-.37Z" style="fill:#2e3070"/><path d="M117,87.21c-.08.14-.07.31,0,.37l1,.59a.27.27,0,0,0,.34-.14l.48-.81c.08-.15.07-.32,0-.38l-1-.59c-.1-.06-.25,0-.34.15Z" style="fill:#2e3070"/><path d="M115.36,86.65a4.93,4.93,0,1,0,4.89,5A4.92,4.92,0,0,0,115.36,86.65Zm-.06,8.17a3.25,3.25,0,1,1,3.26-3.22A3.25,3.25,0,0,1,115.3,94.82Z" style="fill:#2e3070"/><path d="M66.35,99.64a.22.22,0,0,1-.19.24h-1a.21.21,0,0,1-.18-.25v-.78c0-.13.09-.25.19-.25h1c.1,0,.18.11.18.25Z" style="fill:#2e3070"/><path d="M66.29,107.22c0-.14-.08-.25-.18-.25h-1c-.1,0-.19.12-.19.25V108a.24.24,0,0,0,.18.25h1c.1,0,.18-.1.18-.24Z" style="fill:#2e3070"/><path d="M64.36,99.8a.21.21,0,0,1,0,.3l-.84.48c-.08,0-.21,0-.28-.13l-.38-.67c-.07-.12-.06-.26,0-.31l.84-.47a.23.23,0,0,1,.29.12Z" style="fill:#2e3070"/><path d="M68.1,106.4c-.07-.13-.19-.18-.28-.13l-.84.47a.23.23,0,0,0,0,.31l.38.68a.23.23,0,0,0,.29.12l.84-.47a.23.23,0,0,0,0-.31Z" style="fill:#2e3070"/><path d="M62.72,100.93a.22.22,0,0,1,.12.28l-.49.83a.22.22,0,0,1-.31,0l-.67-.4c-.11-.07-.17-.19-.11-.28l.48-.83a.23.23,0,0,1,.31,0Z" style="fill:#2e3070"/><path d="M69.25,104.77a.22.22,0,0,0-.3,0l-.49.84a.22.22,0,0,0,.12.28l.67.39c.12.07.26.06.31,0l.49-.83c0-.09,0-.21-.12-.29Z" style="fill:#2e3070"/><path d="M61.86,102.73c.14,0,.25.08.25.18v1c0,.1-.11.18-.24.18h-.78c-.14,0-.25-.08-.25-.18v-1c0-.1.11-.18.25-.18Z" style="fill:#2e3070"/><path d="M69.45,102.79c-.14,0-.25.08-.25.18v1c0,.1.11.18.25.18h.77c.14,0,.25-.08.25-.19v-1c0-.1-.11-.18-.24-.19Z" style="fill:#2e3070"/><path d="M62,104.72a.21.21,0,0,1,.3,0l.48.84a.22.22,0,0,1-.13.28l-.68.39a.21.21,0,0,1-.3,0l-.48-.84a.22.22,0,0,1,.13-.28Z" style="fill:#2e3070"/><path d="M68.62,101a.23.23,0,0,0-.13.28l.48.84a.22.22,0,0,0,.3,0l.68-.38c.12-.07.18-.19.13-.28l-.48-.84c0-.09-.18-.1-.3,0Z" style="fill:#2e3070"/><path d="M63.16,106.35a.22.22,0,0,1,.28-.12l.83.49a.23.23,0,0,1,0,.31l-.39.67a.22.22,0,0,1-.28.12l-.84-.49a.21.21,0,0,1,0-.3Z" style="fill:#2e3070"/><path d="M67,99.82a.23.23,0,0,0,0,.31l.83.48c.09.06.22,0,.29-.12l.39-.67c.07-.12.06-.25,0-.3L67.68,99a.23.23,0,0,0-.29.12Z" style="fill:#2e3070"/><path d="M65.68,99.35a4.08,4.08,0,1,0,4,4.11A4.06,4.06,0,0,0,65.68,99.35Zm-.05,6.76a2.69,2.69,0,1,1,2.7-2.67A2.69,2.69,0,0,1,65.63,106.11Z" style="fill:#2e3070"/><path d="M84.61,49.63c0,.17-.1.3-.23.3H83.22c-.13,0-.22-.14-.22-.3v-.94a.27.27,0,0,1,.23-.3h1.16c.13,0,.23.13.22.3Z" style="fill:#2e3070"/><path d="M84.53,58.8a.26.26,0,0,0-.22-.3H83.15c-.12,0-.23.14-.23.3v1a.27.27,0,0,0,.21.3H84.3c.13,0,.23-.13.23-.29Z" style="fill:#2e3070"/><path d="M82.2,49.83a.25.25,0,0,1,0,.36l-1,.58c-.1.06-.26,0-.34-.15l-.46-.82c-.09-.15-.07-.31,0-.37l1-.57c.1-.07.26,0,.34.14Z" style="fill:#2e3070"/><path d="M86.73,57.81c-.08-.15-.24-.22-.34-.16l-1,.58a.26.26,0,0,0,0,.37l.46.82c.08.14.24.21.34.15l1-.58a.28.28,0,0,0,0-.37Z" style="fill:#2e3070"/><path d="M80.22,51.19a.28.28,0,0,1,.15.35l-.59,1a.27.27,0,0,1-.38,0l-.81-.48c-.14-.08-.21-.23-.14-.34l.59-1a.27.27,0,0,1,.37,0Z" style="fill:#2e3070"/><path d="M88.13,55.84a.28.28,0,0,0-.37,0l-.59,1c-.07.11,0,.26.14.34l.81.48a.28.28,0,0,0,.37,0l.6-1c.06-.1,0-.26-.15-.34Z" style="fill:#2e3070"/><path d="M79.18,53.37c.17,0,.3.1.3.22v1.17c0,.13-.14.22-.3.22h-.94c-.17,0-.3-.1-.3-.22V53.58c0-.12.14-.22.3-.21Z" style="fill:#2e3070"/><path d="M88.36,53.44c-.16,0-.3.1-.3.22v1.17a.26.26,0,0,0,.29.22h1c.16,0,.3-.1.3-.22V53.67c0-.12-.13-.22-.3-.22Z" style="fill:#2e3070"/><path d="M79.38,55.77a.27.27,0,0,1,.37,0l.57,1c.07.1,0,.25-.15.33l-.82.47a.27.27,0,0,1-.37,0l-.57-1a.26.26,0,0,1,.15-.34Z" style="fill:#2e3070"/><path d="M87.36,51.25a.28.28,0,0,0-.16.34l.58,1a.28.28,0,0,0,.37,0l.82-.46c.15-.09.22-.24.16-.34l-.58-1a.27.27,0,0,0-.37,0Z" style="fill:#2e3070"/><path d="M80.75,57.76a.27.27,0,0,1,.34-.15l1,.59a.27.27,0,0,1,0,.37l-.47.82a.27.27,0,0,1-.34.14l-1-.59c-.11-.06-.12-.23,0-.37Z" style="fill:#2e3070"/><path d="M85.4,49.85c-.08.14-.07.31,0,.37l1,.59a.28.28,0,0,0,.35-.14l.47-.82a.26.26,0,0,0,0-.37l-1-.59a.29.29,0,0,0-.35.14Z" style="fill:#2e3070"/><path d="M83.8,49.28a4.93,4.93,0,1,0,4.89,5A4.93,4.93,0,0,0,83.8,49.28Zm-.06,8.17A3.24,3.24,0,1,1,87,54.24,3.24,3.24,0,0,1,83.74,57.45Z" style="fill:#2e3070"/><path d="M87.83,125.57a.53.53,0,0,1-.49-.55v-7.49a2.63,2.63,0,0,0-2.46-2.77H75.42c-1.9,0-3.44-1.25-3.44-2.78s1.54-2.77,3.44-2.77h25c1.45,0,2.46-.81,2.46-1.54s-1-1.53-2.46-1.53H86.62a3.14,3.14,0,1,1,0-6.25H99.56a2.11,2.11,0,1,0,0-4.16H75.07a3.53,3.53,0,0,1-3.45-3.59v-3a.5.5,0,1,1,1,0v3a2.48,2.48,0,0,0,2.46,2.49H99.56a3.19,3.19,0,1,1,0,6.37H86.62a2.06,2.06,0,1,0,0,4h13.84c1.93,0,3.44,1.16,3.44,2.64s-1.51,2.65-3.44,2.65h-25c-1.34,0-2.46.76-2.46,1.66s1.12,1.67,2.46,1.67h9.46a3.68,3.68,0,0,1,3.44,3.88V125A.53.53,0,0,1,87.83,125.57Z" style="fill:#2e3070"/><path d="M84.63,103.3a3.37,3.37,0,0,1-.86-.11,3.51,3.51,0,0,1-.87.11H54.17a2.6,2.6,0,0,1-2.61-2.6V56.41a2.61,2.61,0,0,1,2.61-2.6h27a4.31,4.31,0,0,1,2.61.87,4.26,4.26,0,0,1,2.6-.87h27a2.61,2.61,0,0,1,2.61,2.6V100.7a2.6,2.6,0,0,1-2.61,2.6Z" style="fill:#768296"/><path d="M113.36,55.54h-27a2.62,2.62,0,0,0-2.6,2.61,2.62,2.62,0,0,0-2.61-2.61h-27a.88.88,0,0,0-.87.87V100.7a.87.87,0,0,0,.87.87H82.9c.47,0,.86-.21.87-.47,0,.26.39.47.86.47h28.73a.87.87,0,0,0,.87-.87V56.41A.88.88,0,0,0,113.36,55.54Z" style="fill:url(#linear-gradient)"/><path d="M83.77,77.07V58.15a2.62,2.62,0,0,0-2.61-2.61h-27a.88.88,0,0,0-.87.87V100.7a.87.87,0,0,0,.87.87H82.9c.47,0,.87-.21.87-.47v-24Z" style="fill:#fff"/><path d="M83.77,77.07V58.15a2.62,2.62,0,0,1,2.6-2.61h27a.88.88,0,0,1,.87.87V100.7a.87.87,0,0,1-.87.87H84.63c-.48,0-.86-.21-.86-.47v-24Z" style="fill:#fff"/><rect x="55.83" y="58.51" width="24.6" height="4.52" style="fill:#f08319"/><rect x="55.83" y="64.59" width="24.6" height="1.59" style="fill:#aebfce"/><rect x="55.83" y="70.67" width="24.6" height="1.59" style="fill:#aebfce"/><rect x="55.83" y="73.71" width="24.6" height="1.59" style="fill:#aebfce"/><rect x="55.83" y="76.75" width="24.6" height="1.59" style="fill:#aebfce"/><rect x="55.83" y="81.96" width="24.6" height="1.59" style="fill:#aebfce"/><rect x="55.83" y="85" width="24.6" height="1.59" style="fill:#aebfce"/><rect x="55.83" y="91.08" width="24.6" height="1.59" style="fill:#aebfce"/><rect x="55.83" y="94.12" width="24.6" height="1.59" style="fill:#aebfce"/><rect x="87.1" y="58.51" width="24.6" height="1.6" style="fill:#aebfce"/><rect x="87.1" y="61.55" width="24.6" height="1.59" style="fill:#aebfce"/><rect x="87.1" y="66.76" width="24.6" height="1.59" style="fill:#aebfce"/><rect x="87.1" y="69.8" width="24.6" height="1.59" style="fill:#aebfce"/><rect x="87.1" y="72.84" width="24.6" height="1.6" style="fill:#aebfce"/><rect x="87.1" y="81.96" width="24.6" height="1.59" style="fill:#aebfce"/><rect x="87.1" y="85" width="24.6" height="1.59" style="fill:#aebfce"/><rect x="87.1" y="88.04" width="24.6" height="1.59" style="fill:#aebfce"/><rect x="87.1" y="94.12" width="24.6" height="1.59" style="fill:#aebfce"/><polygon points="94.43 53.81 91.27 53.81 91.27 88.83 94.43 87.06 97.59 88.83 97.59 53.81 94.43 53.81" style="fill:#2e3070"/><path d="M94.6,132.16a6.78,6.78,0,0,1-6.77,6.77h0a6.77,6.77,0,0,1-6.77-6.77v-8.25a6.77,6.77,0,0,1,6.77-6.78h0a6.78,6.78,0,0,1,6.77,6.78Z" style="fill:#768296"/><path d="M81.06,123.91v1.66h6.77v-8.44A6.77,6.77,0,0,0,81.06,123.91Z" style="fill:#aebfce"/><path d="M94.6,123.91a6.78,6.78,0,0,0-6.77-6.78v8.44H94.6Z" style="fill:url(#linear-gradient-2)"/><path d="M94.6,123.91a6.78,6.78,0,0,0-6.77-6.78v8.44H94.6Z" style="fill:#aebfce"/><path d="M88.8,126.17a1,1,0,0,1-1,1h0a1,1,0,0,1-1-1V125a1,1,0,0,1,1-1h0a1,1,0,0,1,1,1Z" style="fill:#1c4670"/><path d="M129.08,52.63s-1.12-1.38-3.75-.43c-2,.74-11.48,9.24-10.48,12.92,0,0,.76.14,1.82-2.13a16.68,16.68,0,0,1,4-5.78c2.22-2.22,5.27-4.39,6.28-3.4Z" style="fill:#f08319"/><path d="M121.83,70.58c-5.67,7.68-12.8,14.23-14.64,12.88s2.33-10.1,8-17.78,13.5-15.18,15.34-13.83S127.5,62.9,121.83,70.58Z" style="fill:#2e3070"/><path d="M111.66,77.41a8,8,0,0,0-2.87-1.34c-1.82,3.74-2.59,6.65-1.6,7.39s3.55-.87,6.59-3.7A7.84,7.84,0,0,0,111.66,77.41Z" style="fill:#f08319"/><path d="M121.44,71.77c-.51.7-1,1.18-1.83.6l-5.48-4c-.78-.58-.48-1.23,0-1.93h0c.52-.7,1.06-1.18,1.84-.6l5.48,4c.78.58.48,1.23,0,1.93Z" style="fill:url(#linear-gradient-3)"/><path d="M107.76,82.69a2.75,2.75,0,0,0-1-.48c-.65,1.33-.92,2.36-.57,2.62s1.26-.31,2.33-1.31A2.68,2.68,0,0,0,107.76,82.69Z" style="fill:#2e3070"/><path d="M121.44,71.77c-.51.7-1,1.18-1.83.6l-5.48-4c-.78-.58-.48-1.23,0-1.93h0c.52-.7,1.06-1.18,1.84-.6l5.48,4c.78.58.48,1.23,0,1.93Z" style="fill:#f08319"/><path d="M43.3,71.45s.9-1.1,3-.34c1.63.59,9.15,7.36,8.35,10.3,0,0-.6.1-1.45-1.7A13.28,13.28,0,0,0,50,75.1c-1.77-1.77-4.2-3.5-5-2.71Z" style="fill:#f08319"/><path d="M49.08,85.76C53.6,91.88,59.29,97.1,60.75,96S58.9,88,54.38,81.85s-10.77-12.09-12.23-11S44.56,79.64,49.08,85.76Z" style="fill:#2e3070"/><path d="M57.19,91.2a6.18,6.18,0,0,1,2.29-1.06c1.45,3,2.06,5.3,1.27,5.89s-2.83-.69-5.25-3A6.25,6.25,0,0,1,57.19,91.2Z" style="fill:#f08319"/><path d="M49.39,86.71c.41.55.84.94,1.46.48L55.22,84c.62-.46.38-1,0-1.53h0c-.41-.56-.83-.94-1.46-.48l-4.36,3.22c-.63.47-.39,1,0,1.54Z" style="fill:url(#linear-gradient-4)"/><path d="M60.3,95.41a2.22,2.22,0,0,1,.81-.38c.51,1.06.73,1.88.44,2.09s-1-.25-1.85-1.05A2.08,2.08,0,0,1,60.3,95.41Z" style="fill:#2e3070"/><path d="M49.39,86.71c.41.55.84.94,1.46.48L55.22,84c.62-.46.38-1,0-1.53h0c-.41-.56-.83-.94-1.46-.48l-4.36,3.22c-.63.47-.39,1,0,1.54Z" style="fill:#f08319"/></svg>