<svg id="Calque_1" data-name="Calque 1" xmlns="http://www.w3.org/2000/svg" viewBox="0 0 160 180"><rect x="90.53" y="67.41" width="6.08" height="7.3" style="fill:#f08319"/><polygon points="99.44 67.96 87.69 67.96 93.56 60.26 93.56 60.26 99.44 67.96" style="fill:#f08319"/><rect x="40.29" y="64.74" width="2.6" height="73.19" style="fill:#1c4670"/><rect x="33.78" y="130.13" width="78.99" height="2.6" style="fill:#1c4670"/><rect x="46.59" y="109.68" width="12.03" height="16.76" style="fill:#aebfce"/><rect x="58.64" y="103.64" width="12.03" height="22.79" style="fill:#f08319"/><rect x="70.7" y="92.27" width="12.03" height="34.16" style="fill:#2e3070"/><rect x="82.76" y="83.92" width="12.03" height="42.51" style="fill:#f08319"/><rect x="94.82" y="72.9" width="12.03" height="53.53" style="fill:#aebfce"/><polygon points="52.41 104.22 50.11 102.61 56.91 92.89 63.13 92.89 69.51 80.78 75.96 80.78 82.31 71.52 88.58 71.52 94.77 60.23 97.03 57.78 99.09 59.68 96.95 62.01 90.26 74.33 83.78 74.33 77.44 83.59 71.2 83.59 64.83 95.69 58.37 95.69 52.41 104.22" style="fill:#2e3070"/><polygon points="101.04 63.72 103.51 52.8 92.82 56.11 101.04 63.72" style="fill:#2e3070"/><rect x="114.12" y="104.2" width="8.01" height="9.61" style="fill:#f08319"/><polygon points="125.86 104.92 110.4 104.92 118.13 94.78 118.13 94.78 125.86 104.92" style="fill:#f08319"/><rect x="50.22" y="82.34" width="8.01" height="9.61" style="fill:#f08319"/><polygon points="61.96 83.06 46.49 83.06 54.23 72.91 54.23 72.91 61.96 83.06" style="fill:#f08319"/><rect x="70.53" y="50.89" width="5.06" height="6.07" style="fill:#f08319"/><polygon points="77.94 51.34 68.17 51.34 73.06 44.93 73.06 44.93 77.94 51.34" style="fill:#f08319"/></svg>