<svg id="Calque_1" data-name="Calque 1" xmlns="http://www.w3.org/2000/svg" viewBox="0 0 160 180"><path d="M65.18,90.87c0,.54-.36,1-.76.94l-3.81-.19c-.4,0-.69-.47-.67-1l.16-3.07c0-.53.37-1,.77-.93l3.8.19c.4,0,.7.47.67,1Z" style="fill:#aebfce"/><path d="M63.67,120.71c0-.54-.28-1-.67-1l-3.81-.19c-.39,0-.74.4-.77.94l-.15,3.07a.88.88,0,0,0,.67,1l3.81.18c.39,0,.74-.39.76-.93Z" style="fill:#aebfce"/><path d="M57.34,91.17a.87.87,0,0,1-.2,1.19l-3.39,1.73a.86.86,0,0,1-1.08-.53l-1.4-2.74a.87.87,0,0,1,.19-1.19l3.39-1.73a.87.87,0,0,1,1.09.53Z" style="fill:#aebfce"/><path d="M71,117.77c-.25-.49-.73-.73-1.09-.55L66.47,119a.88.88,0,0,0-.2,1.2l1.4,2.73a.88.88,0,0,0,1.09.54l3.39-1.73a.88.88,0,0,0,.19-1.2Z" style="fill:#aebfce"/><path d="M50.69,95.34a.89.89,0,0,1,.43,1.14l-2.07,3.19a.89.89,0,0,1-1.22.08l-2.57-1.67A.87.87,0,0,1,44.84,97l2.06-3.2a.88.88,0,0,1,1.21-.08Z" style="fill:#aebfce"/><path d="M75.77,111.57a.88.88,0,0,0-1.21.08l-2.06,3.2a.87.87,0,0,0,.42,1.13l2.58,1.67a.87.87,0,0,0,1.21-.08l2.06-3.19c.23-.33,0-.84-.42-1.14Z" style="fill:#aebfce"/><path d="M47,102.28c.54,0,1,.37.94.77l-.2,3.8c0,.4-.47.7-1,.67l-3.06-.15c-.54,0-1-.37-.94-.77l.19-3.8c0-.4.47-.7,1-.67Z" style="fill:#aebfce"/><path d="M76.86,103.8c-.54,0-1,.27-1,.67l-.19,3.8c0,.4.39.75.94.77l3.06.16c.54,0,1-.28,1-.67l.19-3.81c0-.4-.4-.74-.93-.77Z" style="fill:#aebfce"/><path d="M47.31,110.13a.89.89,0,0,1,1.2.19l1.73,3.4a.87.87,0,0,1-.54,1.08L47,116.2a.87.87,0,0,1-1.2-.2L44,112.61a.87.87,0,0,1,.54-1.08Z" style="fill:#aebfce"/><path d="M73.91,96.52a.88.88,0,0,0-.54,1.09L75.11,101a.86.86,0,0,0,1.19.2L79,99.8a.88.88,0,0,0,.54-1.09l-1.73-3.39a.89.89,0,0,0-1.2-.2Z" style="fill:#aebfce"/><path d="M51.48,116.78c.3-.45.81-.65,1.14-.43l3.2,2.07a.87.87,0,0,1,.07,1.21l-1.66,2.58a.88.88,0,0,1-1.14.42l-3.2-2.07a.87.87,0,0,1-.07-1.2Z" style="fill:#aebfce"/><path d="M67.72,91.69a.87.87,0,0,0,.08,1.21L71,95a.88.88,0,0,0,1.14-.43L73.79,92a.87.87,0,0,0-.07-1.21l-3.2-2.07a.89.89,0,0,0-1.14.42Z" style="fill:#aebfce"/><path d="M62.62,89.63a16.05,16.05,0,1,0,15.21,16.84A16,16,0,0,0,62.62,89.63Zm-1.35,26.58a10.56,10.56,0,1,1,11.09-10A10.57,10.57,0,0,1,61.27,116.21Z" style="fill:#768296"/><path d="M68.6,60.79c0,.35-.24.62-.5.61l-2.48-.12a.58.58,0,0,1-.44-.66l.1-2c0-.35.24-.62.5-.61l2.48.12c.26,0,.45.31.44.66Z" style="fill:#aebfce"/><path d="M67.61,80.23c0-.34-.18-.64-.44-.65l-2.48-.13c-.26,0-.48.26-.5.61l-.1,2a.58.58,0,0,0,.44.66l2.48.12c.25,0,.48-.26.49-.61Z" style="fill:#aebfce"/><path d="M63.48,61a.56.56,0,0,1-.13.78l-2.2,1.13a.58.58,0,0,1-.71-.35l-.91-1.78a.58.58,0,0,1,.12-.78l2.21-1.13a.57.57,0,0,1,.71.35Z" style="fill:#aebfce"/><path d="M72.35,78.32c-.16-.32-.48-.48-.71-.36l-2.2,1.13a.58.58,0,0,0-.14.78l.91,1.78a.58.58,0,0,0,.71.36l2.21-1.14a.57.57,0,0,0,.13-.78Z" style="fill:#aebfce"/><path d="M59.15,63.7a.57.57,0,0,1,.28.74l-1.35,2.08a.57.57,0,0,1-.79,0l-1.67-1.08c-.3-.2-.43-.53-.28-.74l1.34-2.09a.57.57,0,0,1,.79,0Z" style="fill:#aebfce"/><path d="M75.5,74.28a.57.57,0,0,0-.79,0l-1.35,2.08a.57.57,0,0,0,.28.74l1.68,1.09a.57.57,0,0,0,.79,0l1.34-2.08a.57.57,0,0,0-.28-.74Z" style="fill:#aebfce"/><path d="M56.76,68.22c.35,0,.63.25.61.51l-.13,2.47c0,.26-.31.46-.65.44l-2-.1c-.35,0-.63-.24-.61-.5l.12-2.48c0-.26.31-.45.66-.44Z" style="fill:#aebfce"/><path d="M76.21,69.21c-.36,0-.65.18-.66.44l-.13,2.48c0,.26.26.48.61.5l2,.1a.58.58,0,0,0,.66-.44l.12-2.47c0-.26-.26-.49-.61-.51Z" style="fill:#aebfce"/><path d="M57,73.34a.56.56,0,0,1,.78.13l1.13,2.2a.57.57,0,0,1-.35.71l-1.79.91a.57.57,0,0,1-.78-.13L54.82,75a.57.57,0,0,1,.35-.71Z" style="fill:#aebfce"/><path d="M74.28,64.47a.57.57,0,0,0-.35.71l1.13,2.2a.58.58,0,0,0,.78.14l1.78-.91A.57.57,0,0,0,78,65.9l-1.13-2.21a.57.57,0,0,0-.78-.13Z" style="fill:#aebfce"/><path d="M59.67,77.67a.58.58,0,0,1,.74-.28l2.08,1.35a.57.57,0,0,1,0,.79l-1.08,1.68a.59.59,0,0,1-.75.28l-2.08-1.35a.57.57,0,0,1-.05-.79Z" style="fill:#aebfce"/><path d="M70.25,61.32a.57.57,0,0,0,0,.79l2.08,1.35a.57.57,0,0,0,.74-.28l1.09-1.68a.58.58,0,0,0,0-.79l-2.08-1.34a.59.59,0,0,0-.75.27Z" style="fill:#aebfce"/><path d="M66.92,60a10.46,10.46,0,1,0,9.92,11A10.46,10.46,0,0,0,66.92,60ZM66,77.3a6.88,6.88,0,1,1,7.23-6.52A6.88,6.88,0,0,1,66,77.3Z" style="fill:#768296"/><path d="M119.52,87.81c0,.29-.2.52-.41.51l-2-.11c-.22,0-.37-.25-.36-.54l.08-1.65c0-.29.21-.51.42-.5l2,.1c.21,0,.38.25.36.55Z" style="fill:#aebfce"/><path d="M118.7,103.86a.47.47,0,0,0-.36-.54l-2-.11c-.22,0-.4.22-.42.51l-.08,1.65c0,.28.15.53.36.54l2,.1c.21,0,.39-.21.41-.5Z" style="fill:#aebfce"/><path d="M115.3,88a.47.47,0,0,1-.11.64l-1.82.93a.47.47,0,0,1-.58-.28L112,87.78a.47.47,0,0,1,.11-.64l1.82-.93a.47.47,0,0,1,.59.29Z" style="fill:#aebfce"/><path d="M122.62,102.28c-.14-.26-.4-.39-.58-.3l-1.83.94a.47.47,0,0,0-.11.64l.75,1.47c.14.26.4.39.59.29l1.82-.93a.48.48,0,0,0,.11-.65Z" style="fill:#aebfce"/><path d="M111.72,90.22a.45.45,0,0,1,.23.6l-1.11,1.73a.48.48,0,0,1-.65,0l-1.39-.9a.47.47,0,0,1-.22-.61l1.11-1.72a.47.47,0,0,1,.65,0Z" style="fill:#aebfce"/><path d="M125.21,98.94a.49.49,0,0,0-.65,0l-1.11,1.73c-.12.17,0,.45.23.61l1.38.89a.48.48,0,0,0,.66,0l1.11-1.72a.48.48,0,0,0-.23-.61Z" style="fill:#aebfce"/><path d="M109.75,94c.29,0,.52.2.5.41l-.1,2c0,.21-.25.37-.54.36L108,96.68c-.29,0-.52-.2-.51-.41l.11-2c0-.22.25-.38.54-.36Z" style="fill:#aebfce"/><path d="M125.8,94.76c-.29,0-.54.15-.55.36l-.1,2c0,.21.21.4.51.41l1.64.09c.29,0,.54-.15.55-.36l.1-2c0-.21-.22-.4-.5-.41Z" style="fill:#aebfce"/><path d="M109.91,98.17a.47.47,0,0,1,.64.1l.93,1.83a.46.46,0,0,1-.29.58l-1.47.75a.47.47,0,0,1-.64-.1l-.93-1.83a.46.46,0,0,1,.29-.58Z" style="fill:#aebfce"/><path d="M124.21,90.85c-.25.13-.39.39-.29.58l.93,1.83a.48.48,0,0,0,.65.1l1.47-.75a.46.46,0,0,0,.28-.58l-.93-1.83c-.09-.19-.38-.23-.64-.1Z" style="fill:#aebfce"/><path d="M112.15,101.74a.48.48,0,0,1,.61-.23l1.72,1.11a.48.48,0,0,1,0,.66l-.89,1.38a.47.47,0,0,1-.62.23l-1.71-1.11a.48.48,0,0,1,0-.65Z" style="fill:#aebfce"/><path d="M120.88,88.25c-.15.25-.14.54,0,.65L122.64,90a.48.48,0,0,0,.61-.23l.9-1.39a.48.48,0,0,0,0-.65l-1.72-1.11c-.18-.12-.45,0-.61.23Z" style="fill:#aebfce"/><path d="M118.14,87.15a8.63,8.63,0,1,0,8.18,9A8.63,8.63,0,0,0,118.14,87.15Zm-.73,14.29a5.68,5.68,0,1,1,6-5.39A5.68,5.68,0,0,1,117.41,101.44Z" style="fill:#768296"/><path d="M68.09,98.66,85,88.1,69.32,75.75A19.92,19.92,0,0,0,68.09,98.66Z" style="fill:#ffa229"/><path d="M78.8,63.48,86.24,82l14.47-13.67a19.12,19.12,0,0,0-2.13-2A19.92,19.92,0,0,0,78.8,63.48Z" style="fill:#2e3070"/><path d="M72.62,103.74a19.82,19.82,0,0,0,14,4.2L85,88.1,68.09,98.66A19.78,19.78,0,0,0,72.62,103.74Z" style="fill:#2e3070"/><path d="M69.32,75.75,85,88.1,77.52,69.63A19.74,19.74,0,0,0,69.32,75.75Z" style="fill:#aebfce"/><path d="M85,88.1l19.16,5.45a20,20,0,0,0-4.68-19.12Z" style="fill:#aebfce"/><path d="M85,88.1l1.62,19.84a19.84,19.84,0,0,0,17.54-14.39Z" style="fill:#ffa229"/><path d="M117.7,113.09a17.19,17.19,0,1,1,12.16-5A17.12,17.12,0,0,1,117.7,113.09Zm0-30.81a13.61,13.61,0,1,0,9.63,4A13.51,13.51,0,0,0,117.7,82.28Z" style="fill:#2e3070"/><rect x="97.01" y="108.93" width="11.72" height="3.59" transform="translate(-48.16 105.15) rotate(-44.99)" style="fill:#2e3070"/><path d="M74.78,133.1a2.39,2.39,0,0,0,0,3.39l2.32,2.32a2.39,2.39,0,0,0,3.39,0l22-22a2.41,2.41,0,0,0,0-3.39l-2.33-2.32a2.38,2.38,0,0,0-3.38,0Z" style="fill:#2e3070"/><rect x="96.86" y="112.1" width="1.2" height="8.08" transform="translate(-53.58 102.92) rotate(-45)" style="fill:#ffa229"/><rect x="94.88" y="114.07" width="1.2" height="8.08" transform="translate(-55.55 102.09) rotate(-44.99)" style="fill:#ffa229"/><rect x="79.22" y="129.73" width="1.2" height="8.08" transform="translate(-71.22 95.67) rotate(-45.02)" style="fill:#ffa229"/><rect x="81.2" y="127.76" width="1.2" height="8.08" transform="translate(-69.24 96.46) rotate(-45.01)" style="fill:#ffa229"/></svg>