<svg id="Calque_1" data-name="Calque 1" xmlns="http://www.w3.org/2000/svg" viewBox="0 0 160 180"><path d="M50,96.27A32.86,32.86,0,0,1,82.84,63.42V58.07a38.2,38.2,0,0,0,0,76.4v-5.35A32.86,32.86,0,0,1,50,96.27Z" style="fill:#768296"/><path d="M50,96.27a32.86,32.86,0,0,0,32.86,32.85v-5.34a27.51,27.51,0,0,1,0-55V63.42A32.86,32.86,0,0,0,50,96.27Z" style="fill:#fff"/><path d="M60.68,96.27A22.19,22.19,0,0,1,82.84,74.11V68.77a27.51,27.51,0,0,0,0,55v-5.35A22.18,22.18,0,0,1,60.68,96.27Z" style="fill:#768296"/><path d="M60.68,96.27a22.18,22.18,0,0,0,22.16,22.16v-5.35a16.81,16.81,0,0,1,0-33.62V74.11A22.19,22.19,0,0,0,60.68,96.27Z" style="fill:#fff"/><path d="M71.38,96.27A11.47,11.47,0,0,1,82.84,84.81V79.46a16.81,16.81,0,0,0,0,33.62v-5.35A11.47,11.47,0,0,1,71.38,96.27Z" style="fill:#768296"/><path d="M71.38,96.27a11.47,11.47,0,0,0,11.46,11.46v-5.34a6.12,6.12,0,0,1,0-12.23V84.81A11.47,11.47,0,0,0,71.38,96.27Z" style="fill:#fff"/><path d="M76.73,96.27a6.12,6.12,0,0,0,6.11,6.12V90.16A6.12,6.12,0,0,0,76.73,96.27Z" style="fill:#768296"/><path d="M82.84,58.07v5.35a32.85,32.85,0,0,1,0,65.7v5.35a38.2,38.2,0,0,0,0-76.4Z" style="fill:#768296"/><path d="M110.35,96.27a27.55,27.55,0,0,1-27.51,27.51v5.34a32.85,32.85,0,0,0,0-65.7v5.35A27.54,27.54,0,0,1,110.35,96.27Z" style="fill:#fff"/><path d="M110.35,96.27a27.54,27.54,0,0,0-27.51-27.5v5.34a22.16,22.16,0,0,1,0,44.32v5.35A27.55,27.55,0,0,0,110.35,96.27Z" style="fill:#768296"/><path d="M99.65,96.27a16.83,16.83,0,0,1-16.81,16.81v5.35a22.16,22.16,0,0,0,0-44.32v5.35A16.83,16.83,0,0,1,99.65,96.27Z" style="fill:#fff"/><path d="M99.65,96.27A16.83,16.83,0,0,0,82.84,79.46v5.35a11.46,11.46,0,0,1,0,22.92v5.35A16.83,16.83,0,0,0,99.65,96.27Z" style="fill:#768296"/><path d="M89,96.27a6.12,6.12,0,0,1-6.11,6.12v5.34a11.46,11.46,0,0,0,0-22.92v5.35A6.12,6.12,0,0,1,89,96.27Z" style="fill:#fff"/><path d="M89,96.27a6.12,6.12,0,0,0-6.11-6.11v12.23A6.12,6.12,0,0,0,89,96.27Z" style="fill:#768296"/><path d="M82.82,96.75A79.42,79.42,0,0,0,73.46,86l-.91,1-.91,1A78.9,78.9,0,0,0,82.82,96.75Z" style="fill:#f08319"/><path d="M73.05,87.48s1.43-1.26.81-1.85L63.45,75.74l-2.61,2.75,10.41,9.89C71.87,89,73.05,87.48,73.05,87.48Z" style="fill:#f08319"/><rect x="57.68" y="65.83" width="3.79" height="17.7" transform="translate(-35.59 66.41) rotate(-46.45)" style="fill:#f08319"/><path d="M54.76,70.09s4.2-6.39.4-10c-2.81-2.64-9.78-9.59-16.21-5C34.74,61.73,42,68.34,44.82,71,48.59,74.62,54.76,70.09,54.76,70.09Z" style="fill:#2e3070"/><path d="M48.07,54.74a12.51,12.51,0,0,0-1.62-.66l.38,8.49-8.5,0a12.11,12.11,0,0,0,.75,1.59l9.41-.06Z" style="fill:#fff"/><path d="M51.88,67.36,51.4,56.84a21,21,0,0,0-2-1.39l.45,10-10,.06a22.66,22.66,0,0,0,1.48,2Z" style="fill:#fff"/><path d="M82.11,98.42a63,63,0,0,0-10.47-4l-.29,1-.28,1A62.42,62.42,0,0,0,82.11,98.42Z" style="fill:#f08319"/><path d="M71.88,95.55s.53-1.41-.12-1.59L60.85,90.9,60,93.78,71,96.84C71.6,97,71.88,95.55,71.88,95.55Z" style="fill:#f08319"/><rect x="56.26" y="84.6" width="2.99" height="13.97" transform="translate(-46.02 122.45) rotate(-74.32)" style="fill:#f08319"/><path d="M52.71,90.16s.58-6-3.4-7.1C46.38,82.25,39,80,36.15,85.51c-.49,6.2,7,8.11,10,8.95C50.07,95.6,52.71,90.16,52.71,90.16Z" style="fill:#2e3070"/><path d="M42.39,81.91a10.4,10.4,0,0,0-1.38.14l3.4,5.78L38.49,91a10,10,0,0,0,1.11.83l6.55-3.51Z" style="fill:#fff"/><path d="M49.69,89.32l-4.21-7.17a16.62,16.62,0,0,0-1.91-.23l4,6.79-6.93,3.72a16.15,16.15,0,0,0,1.75.81Z" style="fill:#fff"/><path d="M83.41,97.32a70.79,70.79,0,0,1,8.39-9.61l.82.86.82.86A71.12,71.12,0,0,1,83.41,97.32Z" style="fill:#f08319"/><path d="M92.17,89s-1.28-1.13-.72-1.66l9.33-8.87,2.35,2.47-9.34,8.87C93.23,90.34,92.17,89,92.17,89Z" style="fill:#f08319"/><rect x="96.32" y="75.82" width="15.87" height="3.4" transform="translate(-24.73 93.09) rotate(-43.52)" style="fill:#f08319"/><path d="M108.58,73.41s-3.77-5.73-.36-8.94c2.52-2.37,8.77-8.6,14.54-4.52,3.77,6-2.77,11.89-5.27,14.28C114.11,77.48,108.58,73.41,108.58,73.41Z" style="fill:#2e3070"/><path d="M114.57,59.64a11.43,11.43,0,0,1,1.46-.59l-.35,7.61,7.63,0a10.24,10.24,0,0,1-.67,1.42l-8.44,0Z" style="fill:#fff"/><path d="M111.16,71l.42-9.44c.57-.43,1.18-.85,1.82-1.24L113,69.22l9,.06A19.91,19.91,0,0,1,120.61,71Z" style="fill:#fff"/><polygon points="90 112.86 83.1 104.25 76.21 112.87 79.66 112.87 79.66 138.85 86.57 138.85 86.55 112.86 90 112.86" style="fill:#f08319"/><polygon points="98.59 119.27 93.4 112.8 88.21 119.28 90.81 119.28 90.82 138.83 96.01 138.83 95.99 119.28 98.59 119.27" style="fill:#f08319"/><polygon points="67.62 119.33 72.81 112.85 78 119.33 75.4 119.33 75.41 138.88 70.23 138.88 70.22 119.33 67.62 119.33" style="fill:#f08319"/><path d="M115.14,126.25c-3.77-3.32,5.63-15.6,2.88-24.65-3.5-11.52-18.44-9.54-18.13-7.35.13.88,2.18,3.64,2.18,3.64a87.26,87.26,0,0,0-6.39,6.58c-1.25,1.57-2.52,3.51,0,5.1,3.15,2,4.5.07,7.27-1.71a2.49,2.49,0,0,1,1.44-.47h0a1.71,1.71,0,0,1,.62.15,2.09,2.09,0,0,1,.84.81c.72,1.68-.41,5.29-3.56,8.37-4.27,4.19-3.8,10.59-3.8,10.6-3.22,2.68-5.84,4.68-5.84,11.56h29.58C122.23,131.13,118.91,129.58,115.14,126.25Z" style="fill:#2e3070"/></svg>