<?xml version="1.0" encoding="utf-8"?>
<!-- Generator: Adobe Illustrator 24.3.0, SVG Export Plug-In . SVG Version: 6.00 Build 0)  -->
<svg version="1.1" id="Calque_1" xmlns="http://www.w3.org/2000/svg" xmlns:xlink="http://www.w3.org/1999/xlink" x="0px" y="0px"
	 viewBox="0 0 400 400" style="enable-background:new 0 0 400 400;" xml:space="preserve">
<style type="text/css">
	.st0{fill:#221F6B;}
	.st1{fill:#F9850A;}
	.st2{fill:#000099;}
	.st3{fill:#06148F;}
	.st4{fill:#F78303;}
</style>
<symbol  id="Nouveau_symbole" viewBox="-69.05 -24.43 138.1 48.86">
	<path class="st0" d="M-21.99-9.57c-2.83-6.62-7.73-10.08-9.63-11.29c-0.03,1.4-0.04,2.8-0.07,4.2c1.41,1.04,3.68,3.01,5.48,6.17
		c2.09,3.66,2.52,7.09,2.62,8.9c0.12,1.65,0.4,8.08-4.08,14.13c-4.3,5.8-10.17,7.47-11.84,7.89c-1.5,0.34-3.59,0.66-6.05,0.55
		c-2.37-0.1-4.34-0.57-5.78-1.01V-9.93l-3.95-0.09v32.21c2.09,0.88,5.38,1.97,9.54,2.2c3.93,0.21,7.15-0.42,9.27-1.01
		c2.17-0.86,6.03-2.72,9.63-6.52c3.57-3.77,5.22-7.7,5.96-9.91C-20.32,4.9-18.73-1.94-21.99-9.57z"/>
	<path class="st1" d="M-33.67-22.14c-2.09-0.89-5.37-1.99-9.54-2.24c-3.92-0.23-7.15,0.39-9.27,0.98c-2.18,0.85-6.05,2.69-9.66,6.48
		c-3.59,3.76-5.24,7.68-6,9.88c-0.57,2.06-2.19,8.89,1.04,16.52c2.81,6.63,7.69,10.1,9.6,11.32c0.03-1.4,0.06-2.8,0.08-4.2
		c-1.4-1.05-3.66-3.02-5.46-6.19c-2.08-3.66-2.5-7.1-2.59-8.91c-0.12-1.65-0.37-8.08,4.14-14.11c4.32-5.78,10.2-7.44,11.86-7.85
		c1.51-0.33,3.59-0.64,6.06-0.53c2.37,0.11,4.34,0.58,5.78,1.03c-0.04,9.97-0.08,19.94-0.11,29.92l3.95,0.1L-33.67-22.14z"/>
	<rect x="-46.76" y="-17.45" class="st1" width="4.31" height="34.96"/>
	<path class="st0" d="M0.61-11.96c0.02,0.21,0.23,0.22,0.35,0.32c1.23,0.97,1.71,2.38,1.3,3.82C1.92-6.63,0.88-5.9-0.72-5.75
		c-0.2,0.02-0.39,0.03-0.59,0.02c-2-0.01-4-0.02-5.99-0.04c-0.34,0-0.66,0.06-0.68-0.48C-8-6.76-7.69-6.79-7.36-6.79
		c0.84,0.02,0.97-0.49,1-1.18c0.13-2.87,0.14-5.73,0-8.6c-0.04-0.78-0.19-1.38-1.17-1.31c-0.47,0.04-0.44-0.3-0.46-0.62
		c-0.02-0.38,0.2-0.39,0.48-0.39c2.19,0.01,4.39-0.01,6.58,0.03c1.05,0.02,1.97,0.45,2.72,1.18C3.78-15.79,3.24-13.24,0.61-11.96z
		 M-3.95-8.69c0,1.64,0,1.64,0.97,1.72c1.76,0.14,2.68-0.4,2.87-1.72c0.05-0.36,0.05-0.73,0.01-1.09c-0.12-1.18-0.55-1.6-1.74-1.78
		c-2.03-0.3-2.11-0.23-2.11,1.78V-8.69z M0.41-15.55c-0.07-1.5-0.48-1.91-1.96-2.03c-2.41-0.19-2.41-0.19-2.41,2.42
		c0,0.14-0.05,0.31,0.01,0.42c0.32,0.61-0.78,1.83,0.72,1.91c2.62,0.13,3.54-0.44,3.64-2.13C0.42-15.15,0.42-15.35,0.41-15.55z"/>
	<path class="st0" d="M58.01-16.55c0.57,1.95,1.21,3.88,1.68,5.85c0.23,0.96,0.68,1.25,1.61,1.35c0.98,0.11,1.4-0.1,1.63-1.12
		c0.47-2.1,1.11-4.16,1.74-6.46c0.6,2.18,1.19,4.15,1.48,6.19c0.08,0.57-0.45,0.39-0.72,0.46c-0.35,0.09-0.63,0.09-0.61,0.59
		c0.02,0.6,0.44,0.4,0.72,0.41c0.96,0.02,1.92,0.02,2.87,0c0.22-0.01,0.6,0.21,0.63-0.28c0.02-0.35,0.06-0.7-0.44-0.73
		c-0.59-0.03-0.74-0.48-0.87-0.92c-0.67-2.18-1.33-4.35-1.99-6.53c-0.25-0.82-1.99-1.55-2.73-1.13c-0.24,0.14-0.23,0.42-0.29,0.65
		c-0.56,2.05-1.11,4.1-1.66,6.15c-0.05,0.18-0.04,0.37-0.31,0.53c-0.6-2.09-1.18-4.16-1.78-6.23c-0.23-0.8-1.97-1.52-2.66-1.09
		c-0.22,0.14-0.22,0.42-0.29,0.65c-0.73,2.35-1.29,4.75-2.19,7.05c-0.18,0.45-0.35,0.86-0.92,0.89c-0.45,0.02-0.42,0.33-0.43,0.65
		c-0.02,0.49,0.33,0.35,0.57,0.35c1.39,0.01,2.78,0.01,4.17,0c0.25,0,0.57,0.11,0.59-0.35c0.03-0.43-0.11-0.63-0.55-0.63
		c-0.78,0.01-0.83-0.41-0.72-1.08C56.86-13.11,57.4-14.83,58.01-16.55z"/>
	<path class="st1" d="M-9.78-16.8c-0.17,0.27-0.31,0.42-0.65,0.23c-0.6-0.32-1.26-0.49-1.94-0.58c-1.64-0.22-2.98,0.6-3.48,2.09
		c-0.19,0.57-0.23,0.92,0.57,0.83c0.55-0.06,1.11-0.01,1.66-0.01c1.17-0.04,2.34-0.07,3.42,0.52c0.22,0.12,0.41,0.17,0.46,0.49
		c0.29,2.03-1.24,3.96-3.3,4.15c-3.22,0.29-5.58-2.19-5.33-5.57c0.14-1.85,0.8-3.33,2.67-4.05c2.24-0.86,4.08-0.01,5.84,1.29
		C-9.63-17.23-9.63-17.05-9.78-16.8z M-15.26-10.82c0.58,0.45,1.78,0.36,2.36-0.1c0.57-0.46,0.91-1.13,0.72-1.79
		c-0.15-0.55-0.84-0.15-1.28-0.24c-0.21-0.04-0.43-0.01-0.65-0.01c-0.25,0-0.5-0.04-0.74,0.01c-0.38,0.08-1.07-0.27-1.1,0.2
		C-15.99-12.08-15.87-11.29-15.26-10.82z"/>
	<path class="st0" d="M51.55-16.86c-0.14,0.24-0.28,0.38-0.58,0.23c-0.36-0.17-0.73-0.33-1.11-0.44c-2.43-0.68-4.14,0.35-4.49,2.74
		c1.15,0,2.28,0.05,3.42-0.01c0.87-0.05,1.63,0.23,2.4,0.55c0.2,0.09,0.37,0.14,0.43,0.41c0.32,1.52-0.93,3.61-2.43,4.04
		c-3.42,0.98-6.45-1.65-6.2-5.35c0.11-1.54,0.53-2.91,1.95-3.77c1.93-1.16,5.03-0.69,6.59,0.97C51.74-17.24,51.68-17.08,51.55-16.86
		z M46.03-10.96c0.53,0.49,1.84,0.43,2.43-0.06c0.57-0.46,0.9-1.14,0.71-1.79c-0.15-0.53-0.84-0.14-1.29-0.23
		c-0.18-0.04-0.37-0.01-0.55-0.01c-0.25,0-0.5-0.03-0.74,0.01c-0.41,0.07-1.12-0.26-1.19,0.22C45.33-12.2,45.5-11.44,46.03-10.96z"
		/>
	<path class="st0" d="M19.22-10.59c-0.94,0-1.76,0-2.59,0c-0.78,0.01-1.19-0.32-1.12-1.15c0.04-0.47,0.06-0.86-0.68-0.87
		c-0.8-0.01-0.63,0.48-0.64,0.89c-0.02,0.79-0.44,1.81,0.03,2.32c0.47,0.51,1.52,0.14,2.31,0.16c1.51,0.03,3.02,0.02,4.54,0
		c0.3,0,0.75,0.21,0.89-0.23c0.12-0.39,0.18-0.84-0.13-1.23c-0.7-0.9-1.38-1.81-2.07-2.72c-1.01-1.32-2.01-2.65-3.09-4.07
		c1.32-0.16,2.56-0.05,3.77,0.15c0.47,0.08,0.24,0.62,0.3,0.95c0.08,0.44-0.02,0.88,0.72,0.89c0.76,0.01,0.66-0.45,0.7-0.89
		c0.2-2.48,0.19-2.48-2.28-2.48c-1.64,0-3.27-0.02-4.91,0.01c-0.32,0.01-0.78-0.27-0.96,0.24c-0.17,0.47-0.17,0.93,0.19,1.38
		c1.47,1.9,2.9,3.83,4.35,5.75C18.75-11.23,18.95-10.96,19.22-10.59z"/>
	<path class="st0" d="M29.25-16.75c0.69,1.98,1.4,3.72,1.89,5.53c0.18,0.66,0.08,1.08-0.7,1.07c-0.4,0-0.59,0.13-0.58,0.6
		c0.02,0.54,0.36,0.39,0.63,0.39c1.08,0.01,2.16,0.01,3.24,0c0.23,0,0.53,0.08,0.52-0.32c0-0.31,0.06-0.64-0.41-0.67
		c-0.59-0.03-0.8-0.45-1.02-0.92c-1.02-2.18-1.75-4.47-2.61-6.71c-0.28-0.74-1.79-1.34-2.48-0.99c-0.29,0.15-0.28,0.47-0.38,0.71
		c-0.88,2.26-1.63,4.58-2.66,6.79c-0.25,0.53-0.47,1.08-1.19,1.13c-0.43,0.03-0.32,0.36-0.34,0.62c-0.04,0.39,0.22,0.36,0.47,0.36
		c1.51,0,3.03-0.01,4.54,0c0.29,0,0.47-0.05,0.44-0.4c-0.02-0.28,0.05-0.58-0.39-0.57c-1.22,0.04-1.01-0.68-0.8-1.45
		C27.89-13.28,28.6-14.88,29.25-16.75z"/>
	<path class="st0" d="M9.79-13.62c0.06-1.08,0.14-2.22,0.19-3.36c0.02-0.59,0.23-0.92,0.87-0.94c0.42-0.01,0.79-0.12,0.71-0.71
		c-0.08-0.59-0.5-0.34-0.77-0.34c-1.42-0.02-2.84-0.02-4.26-0.01c-0.27,0-0.62-0.16-0.64,0.39c-0.01,0.44,0.14,0.64,0.55,0.64
		c0.74,0,0.96,0.39,1.03,1.09c0.16,1.6,0.13,3.21,0.08,4.81c-0.03,0.78-0.34,1.37-1.28,1.35C6-10.71,5.68-10.74,5.73-10.28
		C5.78-9.91,5.92-9.75,6.3-9.7c0.86,0.11,1.73,0.2,2.55,0.43c0.79,0.22,0.92-0.16,0.93-0.76C9.8-11.21,9.79-12.38,9.79-13.62z"/>
	<path class="st0" d="M39.26-13.35c0.07-1.22,0.14-2.36,0.19-3.5c0.02-0.56,0.17-0.95,0.83-0.97c0.39-0.01,0.81-0.06,0.74-0.68
		c-0.07-0.67-0.55-0.36-0.84-0.37c-1.39-0.03-2.78-0.03-4.17-0.01c-0.25,0-0.65-0.21-0.66,0.35c-0.01,0.4,0.06,0.67,0.52,0.66
		c0.79-0.01,1.01,0.42,1.07,1.15c0.14,1.57,0.12,3.15,0.07,4.72c-0.02,0.83-0.37,1.42-1.35,1.39c-0.24-0.01-0.52-0.01-0.46,0.39
		c0.04,0.29,0.07,0.53,0.45,0.59c1.01,0.15,2.01,0.33,3.01,0.51C39.3-9,39.24-9.5,39.25-9.81C39.28-11.01,39.26-12.22,39.26-13.35z"
		/>
	<path class="st0" d="M8.46-4.35c0.8-0.01,1.47-0.7,1.46-1.5C9.9-6.64,9.21-7.31,8.41-7.3C7.6-7.29,6.97-6.62,6.98-5.8
		C6.99-4.98,7.65-4.33,8.46-4.35z"/>
	<path class="st0" d="M39.4-5.73c-0.01-0.8-0.7-1.47-1.49-1.46c-0.81,0.01-1.45,0.67-1.44,1.49c0.01,0.82,0.66,1.47,1.47,1.46
		C38.74-4.25,39.41-4.94,39.4-5.73z"/>
</symbol>
<use xlink:href="#Nouveau_symbole"  width="138.1" height="48.86" x="-69.05" y="-24.43" transform="matrix(2.4151 0 0 -2.4151 200 200)" style="overflow:visible;"/>
</svg>
