<svg xmlns="http://www.w3.org/2000/svg" width="72.006mm" height="9.4647mm" viewBox="0 0 72.006 9.4647"><g transform="translate(-22.624 -193.26)"><path transform="matrix(.26458 0 0 .26458 22.624 193.26)" d="m62.191 0c-6.028 0-9.459 3.3873-9.459 9.9434v1.8926h-4.7969v6.4238h4.7969v17.512h7.3926v-17.512h7.3477v-6.4238h-7.3477v-1.8477c0-2.332 1.0988-3.4766 3.2988-3.4766 1.232 0 2.3317 0.26385 3.3438 0.74805l1.4961-5.8516c-1.408-0.88003-3.7843-1.4082-6.0723-1.4082zm172.52 1.7227v9.25h-3.1367v6.4707h3.1367v9.6992c0 5.7508 2.7586 8.627 8.2754 8.627 1.1684 0.022677 2.335-0.096571 3.4746-0.35547v-6.3242c-0.59614 0.1149-1.1996 0.17893-1.8066 0.19141-2.1414 0-3.043-0.91184-3.043-3.2129v-8.625h5.3184v-6.4707h-5.3184v-9.25h-6.9004zm-86.676 2.4219v31.627h7.3906v-7.3691-3.7852-20.473h-7.3906zm-125.8 4.6406c-2.4817-0.007559-4.4977 2.0027-4.5 4.4844v18.014c1.89e-4 2.0976 1.454 3.9165 3.5 4.3789 0.32844 0.074457 0.66336 0.11013 1 0.10938 2.4788-3.4e-4 4.4883-2.0096 4.4883-4.4883v-18.014c-0.002267-2.4771-2.0111-4.484-4.4883-4.4844zm164.22 1.7832c-3.1429 0.010202-6.1451 1.3372-8.2695 3.666h0.01563c-2.2443 2.4074-3.3926 5.3509-3.3926 8.9141 0 3.5632 1.1483 6.5508 3.3926 9.0078 2.2088 2.367 5.3218 3.6816 8.5586 3.6133 3.7652 0 6.3813-1.1563 7.998-3.5176 0.39847 1.0882 1.1583 2.008 2.1523 2.6035 1.2104 0.62298 2.5617 0.92093 3.9219 0.86719 1.0769 0.030236 2.1527-0.10087 3.1914-0.38672v-5.9727c-0.42897 0.04611-0.84075 0.095703-1.1953 0.095703-1.2941 0-1.7734-0.77049-1.7734-2.6992v-15.766h-7.123v3.1895c-0.0446-0.13266-0.09698-0.26111-0.15821-0.38867-0.91347-1.911-3.6067-3.2227-7.0137-3.2227h-0.00195c-0.10166-0.002422-0.20135-0.004236-0.30274-0.003907zm-104.1 0.03125c-7.1388 0.046425-12.638 5.6126-12.508 12.586-0.1319 7.084 5.5436 12.716 12.848 12.584 7.304 0.13191 12.982-5.4999 12.85-12.584 0.1319-7.084-5.5456-12.716-12.85-12.584-0.11412-0.002061-0.22653-0.00269-0.33984-0.001953zm48.629 0.003907c-6.925 0.084272-12.294 5.5241-12.164 12.584 0 7.26 5.499 12.584 13.375 12.584 4.62 0 8.888-2.0242 11-5.3242l-5.6758-3.4746c-1.012 1.584-3.0802 2.5957-5.3242 2.5957-2.992 0-5.3671-1.3199-6.2031-4.0039h17.688c0.08806-0.792 0.13281-1.7613 0.13281-2.8613 0-7.172-5.2801-12.1-12.496-12.1-0.11069-0.001376-0.22212-0.001338-0.33203 0zm87.506 0c-6.292 0-10.736 3.0361-10.736 7.7441 0 3.652 2.5065 5.8531 7.4785 6.9531l3.125 0.70312c3.476 0.74801 4.2676 1.2319 4.2676 2.4199 0 1.056-1.7155 1.7168-4.3555 1.7168-2.948 0-5.237-1.4519-6.293-3.2559l-5.4551 3.0801c0.92399 1.584 2.3764 2.9478 4.4004 4.0918 2.068 1.144 4.4439 1.7148 7.1719 1.7148 6.6 0 11.439-3.0361 11.439-7.7441 0-3.696-2.5085-5.9391-7.4805-7.0391l-3.123-0.70508c-3.476-0.74801-4.2676-1.276-4.2676-2.332s1.4064-1.7148 3.6504-1.7148c2.332 0 4.7088 1.1875 5.6328 2.7715l5.4121-3.0352c-1.76-2.992-5.9392-5.3691-10.867-5.3691zm42.615 0c-6.292 0-10.734 3.0361-10.734 7.7441 0 3.652 2.5065 5.8531 7.4785 6.9531l3.125 0.70312c3.476 0.74801 4.2676 1.2319 4.2676 2.4199 0 1.056-1.7154 1.7168-4.3555 1.7168-2.948 0-5.237-1.4519-6.293-3.2559l-5.4551 3.0801c0.92402 1.584 2.3764 2.9478 4.4004 4.0918 2.068 1.144 4.4438 1.7148 7.1719 1.7148 6.6 0 11.439-3.0361 11.439-7.7441 0-3.696-2.5085-5.9391-7.4805-7.0391l-3.123-0.70508c-3.476-0.74801-4.2695-1.276-4.2695-2.332s1.4083-1.7148 3.6524-1.7148c2.332 0 4.7088 1.1875 5.6328 2.7715l5.4121-3.0352c-1.76-2.992-5.9411-5.3691-10.869-5.3691zm-147.79 0.79297c-2.684 0-5.0602 1.539-6.1602 3.959v-3.5195h-7.3926v23.936h7.3926v-11.836c0-3.52 2.4633-5.7188 6.0273-5.7188 1.188 0 2.1562 0.13046 2.9922 0.39453v-6.7754c-0.792-0.30803-1.7594-0.43945-2.8594-0.43945zm51.385 0.43945-8.0078 10.031v3.7852l8.4043 10.119h8.5352l-10.164-12.012 9.6816-11.924h-8.4492zm-33.346 4.7969c2.948 0 5.0162 1.6707 5.3242 4.1348h-10.691c0.748-2.684 2.8592-4.1348 5.3672-4.1348zm-48.664 0.4375c3.476 0 5.8086 2.5513 5.8086 6.1152 0 3.564-2.3326 6.1172-5.8086 6.1172-3.476 0-5.8066-2.5532-5.8066-6.1172 0-3.564 2.3306-6.1152 5.8066-6.1152zm105.65 0.027344c1.5525 0.031299 3.0367 0.66406 4.1348 1.7734 1.2145 1.0871 1.9012 2.6475 1.8808 4.2773 0.0189 1.6439-0.65933 3.2185-1.8652 4.3359l-0.01562 0.015625c-1.1879 1.1535-2.7921 1.7772-4.4473 1.7324-1.625 0.034016-3.1941-0.5893-4.3496-1.7324-0.28687-0.2812-0.5436-0.59235-0.76758-0.92578-0.67668-1.0074-1.0285-2.1988-1.0059-3.4121-0.03968-1.6159 0.60455-3.1727 1.7734-4.2891 1.1389-1.1723 2.7156-1.8158 4.3496-1.7734h0.00195c0.10401-0.003307 0.20705-0.004039 0.31055-0.001953zm-183.84 9.6973c-0.079226-2.3e-4 -0.15819 0.0019-0.23828 0.005859-5.8347 0.28762-5.6172 8.9759 0.22461 8.9707 2.4785 7.6e-5 4.4883-2.0098 4.4863-4.4883 0-2.4858-2.0167-4.4812-4.4727-4.4883z" fill="#fff"></path><text x="80.69928" y="181.04463" fill="#000000" font-family="sans-serif" font-size="10.583px" stroke-width=".26458" style="line-height:1.25" xml:space="preserve"><tspan x="80.69928" y="181.04463" stroke-width=".26458"> </tspan></text></g></svg>